/* XPM */
static char *dfedb340a8d6452cec06c8b5e63fdfc9[] = {
/* columns rows colors chars-per-pixel */
"64 64 211 2 ",
"   c None",
".  c #110D09",
"X  c #1A120C",
"o  c #13110D",
"O  c #1B1611",
"+  c #1E1911",
"@  c #21170F",
"#  c #251C14",
"$  c #2A1E14",
"%  c #281F19",
"&  c #2C2215",
"*  c #25211B",
"=  c #2C241B",
"-  c #32261C",
";  c #342A1D",
":  c #3B2C1E",
">  c #2A2521",
",  c #2E2C2A",
"<  c #2E2823",
"1  c #312A24",
"2  c #3A2E22",
"3  c #322D2B",
"4  c #35312D",
"5  c #3B342B",
"6  c #3E3326",
"7  c #2F3130",
"8  c #353431",
"9  c #3B3632",
"0  c #3E3A33",
"q  c #3D3C39",
"w  c #412E1E",
"e  c #492F1C",
"r  c #443325",
"t  c #44382D",
"y  c #4A3A2B",
"u  c #4B3526",
"i  c #533A25",
"p  c #523C2B",
"a  c #5C3D28",
"s  c #433C35",
"d  c #493E35",
"f  c #433E39",
"g  c #483E38",
"h  c #503F30",
"j  c #5B432C",
"k  c #45413C",
"l  c #4B453D",
"z  c #4D493E",
"x  c #4D4235",
"c  c #534434",
"v  c #5B4633",
"b  c #534539",
"n  c #52493D",
"m  c #5A4C3D",
"M  c #634B39",
"N  c #64533F",
"B  c #755A3E",
"V  c #454240",
"C  c #4A4642",
"Z  c #4D4943",
"A  c #4D4C4B",
"S  c #524C44",
"D  c #594D42",
"F  c #534E4A",
"G  c #555046",
"H  c #5C5243",
"J  c #54514C",
"K  c #5A544C",
"L  c #5D594E",
"P  c #555453",
"I  c #5A5653",
"U  c #5C5A53",
"Y  c #5D5B5B",
"T  c #595658",
"R  c #62564B",
"E  c #645A4D",
"W  c #6D5D4D",
"Q  c #665444",
"!  c #745B43",
"~  c #715F4C",
"^  c #635C52",
"/  c #6A5F53",
"(  c #615D58",
")  c #75624E",
"_  c #7B634E",
"`  c #656156",
"'  c #6C6355",
"]  c #66635D",
"[  c #6B655B",
"{  c #6F695D",
"}  c #756655",
"|  c #7A6652",
" . c #7B6956",
".. c #71655A",
"X. c #796759",
"o. c #746A5B",
"O. c #7B6C5C",
"+. c #706856",
"@. c #646361",
"#. c #696663",
"$. c #6C6B6B",
"%. c #6E6960",
"&. c #746D62",
"*. c #7A6D62",
"=. c #7C7264",
"-. c #7C746A",
";. c #757067",
":. c #7B7975",
">. c #836E5A",
",. c #806650",
"<. c #84725D",
"1. c #8B715A",
"2. c #8D795F",
"3. c #917859",
"4. c #816F62",
"5. c #847464",
"6. c #8A7664",
"7. c #867863",
"8. c #8C7A64",
"9. c #827669",
"0. c #857A6C",
"q. c #8B7C6C",
"w. c #957D64",
"e. c #9A7E62",
"r. c #927E6B",
"t. c #987F6A",
"y. c #857E73",
"u. c #897E71",
"i. c #8D816E",
"p. c #9B8366",
"a. c #95826C",
"s. c #9B846B",
"d. c #9A886E",
"f. c #8D8273",
"g. c #8B837B",
"h. c #938473",
"j. c #9B8573",
"k. c #958975",
"l. c #9C8A74",
"z. c #938678",
"x. c #9C8B7B",
"c. c #96887C",
"v. c #9D907D",
"b. c #A2856D",
"n. c #A2896E",
"m. c #A48C74",
"M. c #AA8E75",
"N. c #A38E7B",
"B. c #A48B75",
"V. c #AC9176",
"C. c #A4937D",
"Z. c #AB947C",
"A. c #AD997E",
"S. c #A49075",
"D. c #B39576",
"F. c #B3967B",
"G. c #B3997D",
"H. c #BB9B7C",
"J. c #B99773",
"K. c #C29E7D",
"L. c #9D8F81",
"P. c #9E9689",
"I. c #A48D80",
"U. c #A59583",
"Y. c #AD9682",
"T. c #AD9B85",
"R. c #AA9B89",
"E. c #A59886",
"W. c #B39682",
"Q. c #B49C84",
"!. c #BC9D83",
"~. c #B39D8A",
"^. c #A99E95",
"/. c #B5A186",
"(. c #BAA184",
"). c #B4A18C",
"_. c #BCA38B",
"`. c #BFAA8E",
"'. c #ACA196",
"]. c #BBA492",
"[. c #BEAB9B",
"{. c #B8A896",
"}. c #BFB09F",
"|. c #AFA4A2",
" X c #BEB3A5",
".X c #C39F85",
"XX c #C2A386",
"oX c #C4A58A",
"OX c #C4AA8C",
"+X c #C9AB8C",
"@X c #C8A88A",
"#X c #C4AC94",
"$X c #CCAE93",
"%X c #C2AD9B",
"&X c #D0AE93",
"*X c #C5B095",
"=X c #CCB495",
"-X c #C8B29B",
";X c #D3B698",
":X c #CBB9A5",
">X c #D2BEA9",
",X c #DDC19F",
"<X c #D8C3A9",
"1X c #D8C7B1",
"2X c #E6CDAD",
"3X c #E0C5A8",
"4X c #EDD0A9",
"5X c #E9D7BB",
"6X c #F3DCBD",
"7X c #C7C4C4",
"8X c #F5E3C3",
/* pixels */
"                                                        <X<X-X%XE.E.'.^.{.:X:X[.                                                ",
"                                              !.B.w.2.>. .W ^ ^ R K K L R ^ ^ ( ^ { y.y.                                        ",
"                                          j.} D n K D S S S S F J I I S S S F l l k C Z F @.                                    ",
"                                      ^.I g C R ^ G J S S S Z S S S S C k f V f Z C Z C 9 9 k @.                                ",
"                                      J f s f f f n G R R D m n Z z Z f f s 9 0 s s 0 0 9 4 , @.                                ",
"                                      P 3 3 9 f Q } 6.r.5.O.O.X...R K D d g C g 9 0 9 9 8 8 4                                   ",
"                                        q , s / O.W W E R >.n.>.m l l m 5.6.a.z 4 6 s k 9 8                                     ",
"                                            H w.e.| m d c M _ w $ % 6 u e e H & = 6 t S q                                       ",
"                                            ,.a i M d < - p w 2 $ X # y h d & = % = @ # 5 K                                     ",
"                                          y i p v r = % @ r r : % . . # 6 6 - + X % = ; % @                                     ",
"                                          d y w y ; @ o O = 2 : = < < % = ; - . . # 1 % % =                                     ",
"                                            y & ; - b 4.6.5.X./ *.*.+.W D b s s * # % X % 9                                     ",
"                                              5 } 8.W.oXQ.Y.I.j.6.../ ' / R D F F V P 8 9                                       ",
"                                              |.N.l.5.*.../ ^ R K K U K H S Z C l F T $.                                        ",
"                                              7Xn 5 9 l F J F F F K F F F Z S Z f 9 9 @.                                        ",
"                                                  9 l ^ [ / [ &.*.[ U F F F Z Z q 9                                             ",
"                                                    ' o.-.9.c.x.z.0.*.^ K P K Z f A                                             ",
"                                                    R.M.~.Q.Q.C.x.u.0.=.[ ` Y A C                                               ",
"                                                    ).H.!.Q.].~.I.x.c.g.:.#.( P Y                                               ",
"                                                    U.F.oX#X!.Y.~.I.z.z.y.&.( I Y                                               ",
"                                                    ).F.F.W.R.~.U.x.c.u.&.[ ` I T                                               ",
"                                                    A.M.T.N.h.q.h.f.y.-.-.%.] I P                                               ",
"                                                    d.M.A.Z.l.N.N.u.*.u.;.` #.T A                                               ",
"                                                    N.m.Q.Z.t.t.x.9.*.%.^ U U U A                                               ",
"                                                    L.6.O.' H ^ K l z G J K U J J                                               ",
"                                                    x.t.e.n.C.A.x.a.a.h.=.o.L k $.                                              ",
"                                                    _.oX@X@X_.T.C.C.v.q.-.o.` I Y                                               ",
"                                                    G.!.A.F.Z.S.~.T.C.i.f.;.` K Y                                               ",
"                                                    B.F.W.V.n.d.C./.C.f.9.{ ` K P                                               ",
"                                                    B.W.Q.V.A./.`./.k.i.-.{ [ I P                                               ",
"                                                    n.F.G.V.A././.k.i.0.-.-.%.U J                                               ",
"                                                    N.Q.(.OXQ.).`.{.E.f.0.-.] U P                                               ",
"                                                    S.G.G.H.A.`.*X).v.z.f.;.[ Y J                                               ",
"                                                    C.G.A.A.`.`.T.U.v.k.i.;.` U A                                               ",
"                                                    C.A.H.`././.T.R.v.k.i.-.[ ` A                                               ",
"                                                    A.G./.G././.E.R.R.i.;.-.` Y A                                               ",
"                                                    d.l.C.A.d.l.v.v.f.+.` ^ K A V                                               ",
"                                                    O.} O.i. .O.7.&.` L K G l 8 P                                               ",
"                                                    t. . .~ W ) +.o.+.L z z l k U                                               ",
"                                                    M.!.K.OX+X+X=X*XT.k.i.&.+.K A                                               ",
"                                                    G..X.XoX@XOX*XT.a.i.=.` ` L A                                               ",
"                                                    D.D.H.!.(././.v.l.i.+.E L K Z                                               ",
"                                                    m.M.V.G.D.n.A.Z.i.=.` ` ^ K P                                               ",
"                                                    s.w.p.p.n.p.p.i.o.+.[ ^ L J U                                               ",
"                                                    j.s.w.n.s.2.| H E +.` E L P Y                                               ",
"                                                    r.B.p.n.S.2.| +.' ' ^ ^ L P Y                                               ",
"                                                    x.s.n.n.d.d.a.O.O.&.` U L J P                                               ",
"                                                    T.n.s.s.p.a.2.<.7.+.+.` U G #.                                              ",
"                                                    Y.M.d.n.p.m.i.2.' ' { E J Z                                                 ",
"                                                    x.M.V.n.S.V.A.p.O.=.o.L K Z :.                                              ",
"                                                #XA.b.V.V.S.d.S.a. .<.i.7.+.` z Y [ -.g.                                        ",
"                                            =X=X_.Z.M.M.p.p.1.<.2.+.' o.' E ' =.-...=.c.P.P.                                    ",
"                                          m.J.(.+X3X=X/.H.(.OX*XS.S.d.T.:X1XC.*X5X5X:XT.a.O.:.                                  ",
"                                          y B ;X4X3X/.h.>.=X8X2X/.o.1.*X6X8X<XE.~.XX_.).R - S                                   ",
"                                          x M B 3.e.O.n 3.<X6X;Xl.H N p.2X2X<Xi.c ! Q H s <                                     ",
"                                            v u i v 6 x i j 1.j : = 2 i j j <.; # ; $ % = V                                     ",
"                                          [.t.v r 2 X.B.) y u 2 & 5 d ; r t 2 = O X = 1 s                                       ",
"                                          !.H.b.1.t.!..XV.| t 2 m 5.6.E t 2 # s Z t s z K I                                     ",
"                                        Y.XXH.K.!..X@X.X.XW.I.W.Q.Z.j.j.0.9.} / E ^ ^ L L z ]                                   ",
"                                        N.b.H.K..X.X@XoX.X&X;X;X$X$X#X].%X%X].C.k.=.' R l K J                                   ",
"                                        *.b.J.F.H..X@X@XoX!.oX.X.X#X].~.W.].].j.5.=.=.0.{ J V                                   ",
"                                        :.R >.t.M..X&XoXW.~.W.W.W.Z.N.Y.R.~.~.r.x.f.O.' z 8 A                                   ",
"                                            0 3 d R X.4.r.t.j.B.N.B.r.q.4.4.%.g S s 3 , 7                                       ",
"                                                    f 3 1 3 3 3 9 8 3 3 3 3 > > 3 A                                             "
};
