/* XPM */
static char *abe1cd51c1e44d4eddb78683ffabdc1a[] = {
/* columns rows colors chars-per-pixel */
"64 64 113 2 ",
"   c #4B4B4B",
".  c gray29",
"X  c #414141",
"o  c #3C3C3C",
"O  c #3F3F3F",
"+  c gray25",
"@  c #444444",
"#  c gray24",
"$  c #484848",
"%  c gray30",
"&  c #4C4C4C",
"*  c gray28",
"=  c gray26",
"-  c #393939",
";  c gray21",
":  c gray20",
">  c #353535",
",  c gray23",
"<  c #323232",
"1  c #515151",
"2  c gray36",
"3  c #606060",
"4  c #626262",
"5  c gray39",
"6  c gray37",
"7  c #3A3A3A",
"8  c #434343",
"9  c gray27",
"0  c #494949",
"q  c #464646",
"w  c #373737",
"e  c #2D2D2D",
"r  c #2F2F2F",
"t  c gray40",
"y  c DimGray",
"u  c #656565",
"i  c gray38",
"p  c #4E4E4E",
"a  c #676767",
"s  c #868686",
"d  c gray45",
"f  c #2A2A2A",
"g  c #838383",
"h  c #818181",
"j  c #808080",
"k  c gray51",
"l  c #555555",
"z  c #282828",
"x  c #313131",
"c  c #2C2C2C",
"v  c gray22",
"b  c #565656",
"n  c #6D6D6D",
"m  c #747474",
"M  c #646464",
"N  c #5F5F5F",
"B  c gray15",
"V  c #505050",
"C  c gray32",
"Z  c #343434",
"A  c gray17",
"S  c gray16",
"D  c gray31",
"F  c #777777",
"G  c #717171",
"H  c #686868",
"J  c gray34",
"K  c #3E3E3E",
"L  c #272727",
"P  c #5B5B5B",
"I  c gray43",
"U  c #535353",
"Y  c gray19",
"T  c #252525",
"R  c #222222",
"E  c gray44",
"W  c gray47",
"Q  c #727272",
"!  c #6F6F6F",
"~  c #585858",
"^  c #7B7B7B",
"/  c gray48",
"(  c gray42",
")  c gray46",
"_  c gray33",
"`  c #797979",
"'  c #6A6A6A",
"]  c #6C6C6C",
"[  c #5A5A5A",
"{  c gray35",
"}  c gray18",
"|  c gray14",
" . c #7E7E7E",
".. c gray50",
"X. c gray56",
"o. c #8D8D8D",
"O. c #8B8B8B",
"+. c gray54",
"@. c #8E8E8E",
"#. c #888888",
"$. c #909090",
"%. c #929292",
"&. c #7C7C7C",
"*. c gray49",
"=. c #232323",
"-. c #5D5D5D",
";. c #767676",
":. c gray55",
">. c #989898",
",. c #202020",
"<. c gray53",
"1. c gray52",
"2. c #848484",
/* pixels */
"  . . .                             .     X o O + + + o @ + # + + + o X @ $ % & * = # - ; : > o , < 1 2 3 4 5 6 $ 7         $ = ",
"8 8 8 8 9 9 9   & $ 0       $ q @ 0 * q $ : ; w w w w e w 7 w w w w e o O r t y t u u 5 i p a s d f g h j j k s l z *       . 8 ",
"X X = X X X + O & X = q   * = X X 8 * * 0 x ; w w w w c v X w w w w c o 7 z 5 5 2 b l b b % n m M : 5 4 4 4 4 N x B 8 *       0 ",
"X = = X X X O w q * . V C 1 8 Z Z Z x Z , Z Z > Z : < A X * > > Z x S - O r D p           8 4 4 6 c 3 3 3 3 3 6 x B X X @ 9 $   ",
"X X X X X + v # V m F F G H p r N a 4 J > . + 8 @ @ @ q C C $ 9 = + + * 0 : = * $ $ $ $ 0 K @ C V z q * * q 9 8 e B X K O X X 8 ",
"e A z L B B r . P I t M 4 3 p x u a i U -   9 0 & . @ 8   &   .           Y : ; ; ; > > Z r S r e T z z S S S S L R 7 q o ; : x ",
"; w w w > w V q   D   . . $ w r 1   q X -   $ .     O $               . + A Z - K 8 8 < X 0     & p 0 $ .     q - S e < x < : > ",
"P 2 2 2 X o 0 + O K o o K & 1 V V $ # > e X * @ *   ,       .       9 w # 8 H E E I t b U F W F Q y C J I ! I a P ; 0 P P P P P ",
"6 ~ U V o O 9 X X X X X 9 G ^ / d I ( u K Y = q * * w q     q . . o $ $ @ w ) F y t t 3 _ ` y M 4 3 l 4 W y u u 4 K V 3 3 3 3 P ",
"V & & & , * 8 X 8 * 0 q 9 ' ] 4 3 3 3 N . :     . 0 ; K   . $ q > U % $ X x 2 2 [ J C   , U b J ~ ~   . { ~ l C V + 9 _ C V p 9 ",
"8 K K K Z 0 X X @ . p 0 X * .   $ @ O O ; Y     * q v w     0 . < % . 0 = , w v w , + O O O + 7 x ; B v * 0 0 $ @ 8 v # K K o = ",
"v w w w 7 D @ = = 9 l $ o , < < x Y Y } e A o $ 8 9 7 S %   $ . - q q q = = X = * J 3 3 N 6 6 { w 9 x l i i i 6 V   7 w w w w 7 ",
"  V D 1 _ D 8 X X X D @ & J * < x x x x x x e L e : e | > p $ 0 * q   * q $ = 9 8 D b C p % & & ; q o [ i ~ 1 &   . q = = 9 * 0 ",
"X = 9 X X X 8 = X X   @ @ 9 U % < x x x x x x r T | | | | O   9 $ $     . . @ * = # = w v v w X Z 8 X { 1         9 X X X X X = ",
"= 9 X X X X X X X = * 8 X X @ U 9 A A } x x x x Z + D ; | e 8 . . $ * 0   9 X X = } z L L z S f e X .             @ X X X X X = ",
"X 8 q @ q = = q q 9 @ @ 0 8 9 D c f } Y x x x x x Y < 8 w .         . 0 0 . $ = = * D 1 1 1 1 1 D % $ 0 @ = = 8 = ; x O X X X = ",
"X X = . V $ = 0 . 0 $ = . $ ~ * V l p q O : r Y x x x Z K                 . 0 = o % .   . 9 8 = @ . $ q O + @ X X w T o X X X = ",
"X X X q     b % = $   . D C J U $ = D p U l l 1 0 X v ; X p V ( F ^  .j ..F % X * = = .   . = * q       = O 8 X X X + X X X X = ",
"X = X 0 q = 0 D 8 l X.o.O.+.O.X.o.K O.X.@.o.O.+.#.k b $.%.y U k &.&.&.*.j Q > = @ $ 9 * 8 $ . 0 @ $ X + ;   0 = = X ; + X X X = ",
". 0 9 9 $ * q 1 X U u 5 M M M u % e ..*.) I I I ! E U ..] l @ i 3 3 i i i O x . . * q @ 8 . 9 v x 8 9 . % & $ 0 9 X f } + X X @ ",
"              C =   3 3 3 3 3 3 $ e H 5 3 3 3 3 3 3 . ' 3 _ K 3 3 3 3 3 3 = Y $ 0 * q q 9 8 x z . & .     K T 7 @ = K o * q X @ ",
"      0 .     U 8 8 ~ { { { ~ ~ 8 f [ 6 6 6 6 6 6 6 O b { p : $ 0 0 $ * 9 w c q       0 = } =.x     * * . 8 Y 8 . 9 X * @ @ @   ",
"            q V = + - - - v v v w e > , , , , , , , Z ; v w > w w w v - 7 o # .   w A L | =.| z K - < c S e x - + X 9 9 q     & ",
". $ 9 * $ 0 & * = = 8 0 . X b P 2 2 { $ : + K O 9 9 q $   p p $ C { ~ ~ @ + & . o K K x B | | e 0 . . & D U D   $ 0 % 0 , A @ & ",
"> 8 v V 0 Z $ t ' ( ( u 1 o I M 5 4 4 ~ Y * O .   % % &       8 I i 3 i U f U U 1 p     = f | % 1 $ @ 9 q 0 8 8 *     * o K .   ",
"K ! N ! M - 1 / Q n t 4 l O y 3 6 ~ U % e 0 q *     $ .       8 ( 3 3 3 D B V p         0 S | 1 * q 8 *     . .       * *     . ",
"+ 2 ~ C p < p -.2 P J ~ p # 1 D &     9 r q   0 8 X X X + $   8 H 3 3 3 D B %           * c | 1 $ 8 9                 0 = $ 0 0 ",
"Z X 8 = q v o q * @ = * 0 * = X = X X + @ & . . + # w w w @   8 & 3 3 3 % B p             $ - K   . *     . 0 $ 9 .   . @ 8 . . ",
"< + $ V J [ { _ % & . . . &   . . $ @ 9 * q . . $ . 8 # X     8 b -.[ b 8 B V               0 ,     q . 0 X @ X # 0     . 8 * < ",
". ^ ^ Q I n n u $ 8 8 8 9 & % $   . $ * $ * . . q 0           8 6 * & & X B 1     &         9 .     . . q @ X X w @ . $ @ 8 @ } ",
". u 5 N 3 3 3 -.9 9 . D p $   0 $ 0 $ * @ * D J ~ V     0     8 P # 0 & X B U     *           p 1 C U U   9 = # x X = = X * . : ",
"f < - + $ p D % $ *   { C & $ % 0 0 0 * % J U D p J 1   .     8 p K @ & X B _   8 @ &       D O = + > - # o 7 z Y 9 X X X = 8 : ",
"  % U _ l l b J _ & C 2 C D 0 $ 1 1 1 C 0 q .       l D       8 . , 9 D X B 1   > = &       p r w w x > w w w | x 8 X X X # 7 # ",
"X % ~ b 1 J P b _ ~ [ [ J V = 0   0 = . 9 0           V C V % 8 o : : O v T   v : %       . $ c w w ; ; w w ; | z < : < } o p 9 ",
"* C ~ b 1 b [ ~ V V [ [ P P * 8 @ * q .   & p D V V V D p % & * Y < < : < B f <     0 0   . $ f > > Z x } c f | | | r % & O   8 ",
"@ 9 p U l [ l C C { { { _ $ $ 9 @ O @ -.;.*... .&.W Q ! N r q   0 $ $ $ 0 X S X 9 * q 0       O # O o K X @ *   A w 0 0   0 . . ",
"= X 9 J b _ [ 2 J b U U p n :.o.+.y } ] h  .^ ` ) G n H -.L @     & & & % { Y = 0 . * 0 0 0     q q q q 9 9 9 % ; q   . 0 0   0 ",
"= X = & V D J 2 { 1 J ~ b  .>.$.O.G f 5 a 5 4 4 4 3 3 3 6 L =       .     U : q D M u u 5 9 = . = X X X X X X q o = 8 8 = 8 = * ",
"X 8 = X 0 D 1 U C V _ P b m ..*.d i f [ 3 3 3 N 2 D * p D B + .           V 7 q 2 i 3 3 6 . O   $ X X X = X X X + X X X X X X = ",
"@ 8 = q p D D 1 V _ D J l E ;.] 4 3 A l { b U D &         B +             p 8 q l 2 l C D X # &   q q * 0 q X X 8 q X X X = @ * ",
"  $ 0 p 0 K 9 U l C D C * N i N ~ 1 c O = , p V % % V & K < @             & $ . K X w o q , + &           . = X q   $ X X @ . . ",
". % _ = 8 . * q ~ [ V K 8 P p p & & x = o > - # K O o 7 # q                   % C V p D D V _   * * q * $ 9 $ 9 *     @ X = * q ",
"0 0 q * @ q . $ $ b O O * 1 . . & & Y 9 *       . 0 . . =               & { N 4 5 5 4 -.#       b P N 5 N 9 K & 0   . 9 $ 9 X = ",
"  .   $ 8 X 8 @ * 8 o 9 X . & q $ & r . *       . q   . v               p G m m m Q ] 5 f p   M ^ ;.m d n i % N   X @ l   = X = ",
"9 @ 8 * $ 9 8 = X X 9 + 8 . & & & . } . $             . > o .           D t 4 i 3 3 N 6 A & * P a 3 3 3 3 -.P 3 X ; { % = X X = ",
"X 8 * $   0 9 X X 9 = + Y - o , , w Z & *     @ .       . v < *       & D N -.C _ V p p f   0 q 3 3 3 3 3 3 N [ # < . = X X X q ",
"= 0 $ . . 0 8 X 9 9 X . V K f T T | D . $   - =.o   0 .   . v :     .   $ , v p & & & 9 e   . o O 9 q @ + o v w w : * X X X X = ",
"X = 9 .   . @ 8 * * . * 0   1 D % & 1 U 0 . * , * @ < ; . 0 O c       % C + X + K o # K 9 1   = o v Z r e c A A S ; & X X X X = ",
"X X O = @ O X q q 0 . q     D U _ l ~ U %   * 8 0 q w @     8 L *   .       p p & C C 1 V   v > + = 8 @ 9 @ w ; 8 D . X X X X = ",
"X w V 4 M 5 M u u b [ ( 3 X G ( H H y n b 9 0             . w L r @ 9           $ 3 6 { b V B % 3 3 3 3 3 3 # 7 0 X 8 X X X X = ",
"# : . N N P [ P P _ P 3 C v p % p p D D e 8   0           o x Y ,.# 9 @       0 + . $ @   0 f % 3 N 2 l p & v 8 q X X X X X X = ",
"@ O 1 V % & & & & q C D . : & & & & & & e =     0 $ * q K } x } A 8 X @ .       X } r < Z > v K p p % & & & v * X X X X X X X = ",
"q , = . . . . . . = O * 9 Y + X + + + O c O .     @ 8 < r x } A e $ * @ 0 . . . q .   %     & v 7 7 7 7 7 7 Z * X X X X X X X = ",
"9 X ; 7 , , , , o 7 7 7 7 7 o , , # K O o @       & $ r r x x r A . 0 8 0 * @ q $ 8 = = 8 9 = , , # K + X 8 $ 1 X X X X X X X = ",
"D p &   . $ 0 0 * 0 $ + w 1 [ [ 8 X q   . .     & % Y } c x x x f $ q 8 * 8 0 0 @ 9 * $ q $ * q 8 8 q * $ 0   q X X X X X $ = * ",
") ) ) m m m d Q { X = = - N 3 N   # . .         & V Z r r x r } T , 1 ~ [ { ~ P J 7 V U _ b l V D 0 C _ $ q M ' n ! E ] l * N d ",
"' a t u u u M 4 3 p = C Z { U D @ v 0 0   0     0 & $ x x } f f T : ` s s s #.+.h # s #.<.s 1.2.h ~ g :.i D  ./ / / &.^ 8 J n ] ",
"{ P P [ { ~ b _ 1 9 , 2 ;       9 :   0   . $ 0 0   & 7 e A f e L : M 5 M u u t 9 S H ^ G I I I E C ` n C q i i i i i b f U N [ ",
"                  + v 6 7 * 0 $ O Z 0   $ 0 9 & 0 * = 8 < A A A T Y [ 3 3 N b V w x ' i 3 3 3 3 3 * a 3 V 7 N N N N 6 b f q     ",
"= X X X X = = = X - v _ v } c A f O .   0 & p * . p 0 = = K o , > r * & &   . 0 7 L D U U U U _ _ o q & = Y X = X + + # f o 8 8 ",
"X O + o O = 8 @ @ 9 $ @ @ - Y Y w *   V l . = q 0 9 . p   * 9 @ = ; 7 7 o # , 7 , Y 7 v Z > ; w w Y r x r c e x < r : v # o o o ",
"  0 . 9 9     . .           $ A ,   p & = X X 9 q @ X X X @ @ 8 = + X = 0 0 9 q *       = v v < } S S A A S ; K X X X q $ 8 X = ",
"  0 9 8 X 0 0 @ 9 $   . . .   e 7 $   0 q q * . .   $ q q * $ 0 $ $ * $   0 $ $ .         . .   0 = = @ * - Z $ 9 = X = 0 0 X = ",
"0 . . 0 * . 0 0 . . &       9 x * & & & & & & & & & & & & & & & & & & & & & & & & & & & & & & & & & & & & 0 r 0 . 0 0 0     0 $ "
};
