/* XPM */
static char *_6803628e0224a61f73a7209b176dd70[] = {
/* columns rows colors chars-per-pixel */
"64 64 83 1 ",
"  c #1F211B",
". c #23251F",
"X c #26281B",
"o c #2C2D1D",
"O c #2F301D",
"+ c #31331E",
"@ c #242620",
"# c #262821",
"$ c #2B2C23",
"% c #302E20",
"& c #2F3025",
"* c #333325",
"= c #383726",
"- c #363924",
"; c #3A3B25",
": c #353429",
"> c #39372A",
", c #37382B",
"< c #3C3B2B",
"1 c #3F3D30",
"2 c #413E2E",
"3 c #423E31",
"4 c #3F4127",
"5 c #3F4029",
"6 c #44432E",
"7 c #48472E",
"8 c #464A2C",
"9 c #494D2E",
"0 c #454332",
"q c #4A4634",
"w c #464831",
"e c #4C4B35",
"r c #4C4638",
"t c #4F4B39",
"y c #514737",
"u c #504D37",
"i c #524738",
"p c #534C3B",
"a c #594D3D",
"s c #4D5131",
"d c #515435",
"f c #545937",
"g c #55513C",
"h c #5A533D",
"j c #565B39",
"k c #5C583E",
"l c #615A3E",
"z c #574F40",
"x c #5C5342",
"c c #5E5A41",
"v c #615644",
"b c #635A44",
"n c #695E46",
"m c #655A49",
"M c #6A5D4C",
"N c #6D6245",
"B c #6E614D",
"V c #716646",
"C c #726846",
"Z c #72634D",
"A c #78664D",
"S c #766A4A",
"D c #7B6B4D",
"F c #746551",
"G c #796751",
"H c #776952",
"J c #7C6B53",
"K c #7F7057",
"L c #826E53",
"P c #857255",
"I c #8A7457",
"U c #897956",
"Y c #837359",
"T c #8D7659",
"R c #8D7A5B",
"E c #937C5C",
"W c #917F61",
"Q c #95815D",
"! c #99825F",
"~ c #9D8661",
"^ c #9F8863",
"/ c #A28A64",
"( c #AA936A",
/* pixels */
"ttttttttttttttttetttt0<0060<q153015qqtttq03<>:><2*gbnnBne<pttte0",
"0qq0q0qpptettteeqeqer:>>>>>$,1<<>>565&ZSCVVVNpZ!P$EWEEE!x#qptttq",
"00006000p00qtq000qqqt&,,>=>&<3,,>-995#NVbkkklpDPB:ZMBMBM:#0yttte",
"0000003>qqpazzq::>*>1::>=::$0e,,:O4d8&gutttpt0ZMM&MMMMMm&#30qqet",
"03030253aYIIYFa&nAMv,t0qqqqegztr00ss8w5ertrer33xz#rqqqr0%@333000",
"$$#$X7dwvJFBMMp*ZFBh<s0ete0wuutees<50s;,:<>:::$*$@#$#$###@<r<<:*",
">>>>>;s6taptte,&gtw5<twese6euueestee0$><333*3iiiaarriipr1#&*&::<",
"mmmm06s5<2<<0pzzzt5:&0ewee<useedueq,10AJLLFvxIIILGzvLLJAv<rmmmmv",
"Mmva229;3000qLTTYJAZ2*0wew,rteess5ttw>IIFZFMxIGZMMxMTHFBM3aMMMMm",
"aiii2e<<0qeqqAJBMMMMt>tsee,5seew,zte6&bmmvzi3zxxvvppvxxzz0rvaaaq",
"q232*i02qtpe6eute026>&etew,,ttee:gtt7<><<3333333>w=>rteeqq>22220",
">2>><aq00qxe2;+**OO+$o5e0w1$tsee,www6760qvMMMMMv7d-hNnNNat<><>>2",
"iaahxa0000a7uxq+++++++$X&:&.,zweeweewe7w0zvxaiii6f9lNlgtpuq00qyu",
"30q0300000tq7qhp+++++++O.@@.@5twettsse0w633<2<<q=9-hgppttq003030",
"0q00000630e6667hqooO++++-6p,@$weeeweew766*$@@#$$*;-etttpt0003000",
"00qqq00qeqq0e7qaooO+++++++*0<egeesteeee60qaazaaagq6eq0000>:20000",
"000pge6eeee6eelyaxiq6*+++++-2eesssz5f5tr5z5zz5t57eew50q00,@10300",
"000qppxp7eeephhhe6dphlkay6;=6ggAKYQQQKz5ed5jdz55wueg05q030000000",
"000eq0ta6d^^^!//~2~////!~Ex//AhEQYQRQH,55zz55tzt0e66,tt000,33000",
"erqqteqg8kBBZBZZa$EELLGLJLxEJvqMMMMMB5&tz5555z55*0qtztrtq0#&600q",
"tttttttp8shMMMMBr$FBMMMMMMiGMz3mMMMMm3:t55s5r5,#tpttt5@1q031qq0q",
"tttttttq6ssxxmxxr$vmmmMmMm3vvz>tttrrr,$wjzfz3$@&ttrrz0&0eq0eqqqt",
"ttttttqhsf88>><<>$>222222<>><<,,<=,,555tt5&#@@@@5,&$@&:,00qqqttt",
"ttqqetpq-;5d50xmmmvr*222qqqrtputhbvbt1tt515&@@@$zzzrzzztrrte1$qt",
",q,zt:qZAAJZe5JBBBMv*e5ttgsguedwDMMMx$xzzztt5&@zzeqqqt00ette11tt",
"5KMJB1xTLGZMx0HMMvxa&eqeeeeeeuewJMMMa@zgttttz$@zeq0qtttttttqqttt",
"3mvzp:zmmmvxg<hhiiir&wge00660weqAMMMz#pttttt5$@zqqqttttttttt0ttt",
",0q0q,1eeq0eqe00q062wuee65>><wewamMMz@ztttteze55ttettteeeeteq0et",
":3izvbvxpteettteue77weeeeew50tewvmvv3@zttttztte1ttqtt0q0dwtttqr:",
"pTTLJJGZt0qqetteueeeewseweuttstwmraaq@zttttttt0tttttqq0158ew000$",
"rFMMMMMmqqtgpepee9eeqegxvgssetuwm3ii6eeezqtttttgzzzxpqq5w9s<0tt:",
"$:13razpqqtvxtepeeewpxhggxgtesewa2yi7d2qq0tttzp000,1<1<&ssw1000:",
"tazxxxccxthchpeqzzzztwtt5zjzj5z5i27i68hu:qttttz&,>*>>><#66<30113",
"qpccgxNkxmckch0ettwtrtttzttzjzz52>6u887>:zttttr$,>=><:>#*o&&*1pq",
"wxccjxcchhcNbbqqwrrtttzzjzzzzzzt%$;js6*>tttrttt$>>:*&&#@X &pz3p0",
"qqdhccxhjcbkkeeqr5wmKWQQWYKKM&5diqu989f7qqqettt0<0233rrp$<ttettt",
"00qxkhlcxkhhpJ~/^H$HQWKKKKHHm#5zse5;+67;qtqeqtttqqqqqqrp,qttqttq",
"00quphlNckckkE(/^K$MFBBMMMMMm#5zteew7g:<pBBFBrqt0030000q1q000qqq",
"0000phhhkgkclLEEKM$mMMMmcztzz@5testttd<wMMMMmz0te000000030000000",
"000edgghgkgchLIGMm$xcczzztttz#5dutstsg0exmxzz35ttqqetq00qq0000qq",
"teegt<ehcxghemBMmz&5q1pzzzzt5,qeedeeedtt50,1e<3ptttttt00qtr00qet",
"egx0qteqccg0qmaizz&01:<5555,5retueduetedxzpzgzxpewqqqqt0rttq00qq",
"eeqqqqtqex03qzaizp&qwutseede0tdddeeetcMBBBBm<teuxnnNMq3ptttqtq00",
"tttt00qqqq1q0iirqp&eeeeteeee,eeetetdzKYYKKHB$asBRYYYJMamt0qxt000",
"qqqqeq0000q0qiaaap&essttueee,1seededzBMMMMMM$pwnZMMMMmbM0>vp0000",
"0qqqteq00q03&<<<<,,uetswwddtt,*etetdzMmzxxii$peeMMMMMMMm3:p0030q",
"0tette00qq0tz3$@@@tewt<f95eees,:eeeer51zaaye5pe<3qqq62>=>:r00000",
"000tttqqqqtqepzzptxxes0s95:,et6$dtdtz500<2=9see0<<:&$$$$$>p03000",
"0030030qeetqptpxzxxxgew5s;-wus0$esttuegguh9f86<>00qqr3<>3ae00000",
"0,zMZZBZBxvGM0KHFFFJxwew8;uees=X&wwsseeseMa86p@pMMmMMM32y0q6q600",
"3:tMBmmmmxmMz<aaaaaa$qsw65sue;++ 1wwuuee6ir22y$aMMmxai20q06de600",
"q3xziaiiarzai:ipaipa&0ttewew4O+O$00weese0%%$:><2iaazai<i007d6200",
"q1qiiiiii03yr*330033&5eee86+++Oo&eww9uegqpepuuu>3<222<>q66;9;266",
"q0<<2<<22<<<<<2215105wdest9O++++$ee0ee7we067777<<22233qh06662600",
"ppptpqtteut0<zvm50wdttdets*Oo+++#ee7e6eew8ee7eey36qeyuuq66222u0u",
"YYYYYYYJv600<mMMz5teetuesg*+O+OOo6dklllbk>ghkkhhauhhy7NSSLDShqML",
"HFFFBBBMmaqz>czz0,tteeuueu9++Ooo-sU!!!~~E1W!!!WEEvE/naEITTTTqvGG",
"xmxcmmxxhq<c,tttq:eseewteuu;OoXOseBBMZZZr$ATLLGJLaTJxqMMMMMv$zMm",
"zzttttttt7sg1tte0,tseswte967+O+;48gmMmxz<&FMMMMMMrZMz2MMMMMv#ett",
"050000003-sd,$$$$5eueupeupe68888s986apip1#zxxxxxx2ra3%306322$<qq",
"0551300q06s90,&*<wtgxtqqeqppef4;sjs:<<<<<&1<*>-,>*%*%$+*-%:>31<3",
"zqzrqtttee9<s80$<tgt000wqq00<*=646;<ttqqettt0<<>%$$$$$>2000qe000",
"tr000et0eqqee<e$1ettqqettteq0qeeq76ettettttttttte000q<=qq000qt00",
"etteqtteetttteq*ettpttpttptttpttptttpttptgtptttptppppt%tteetttte"
};
