/* XPM */
static char *a6f7d2567006466def0ce57227041a7d[] = {
/* columns rows colors chars-per-pixel */
"64 64 113 2 ",
"   c #1F1212",
".  c #231514",
"X  c #281716",
"o  c #261815",
"O  c #291A17",
"+  c #2D1C1A",
"@  c #321E1D",
"#  c #34221D",
"$  c #39231E",
"%  c #3A291F",
"&  c #362321",
"*  c #3B2622",
"=  c #3D2A23",
"-  c #3D2729",
";  c #3E292A",
":  c #402A1F",
">  c #402721",
",  c #422C24",
"<  c #492E24",
"1  c #432C2A",
"2  c #482F2A",
"3  c #453126",
"4  c #4B3326",
"5  c #46312A",
"6  c #4B342B",
"7  c #4E392C",
"8  c #523426",
"9  c #503A27",
"0  c #52362B",
"q  c #58372C",
"w  c #533C2C",
"e  c #5A3D2D",
"r  c #4E3530",
"t  c #4F3830",
"y  c #503731",
"u  c #543D30",
"i  c #5A3E30",
"p  c #613E2C",
"a  c #56402F",
"s  c #5C412E",
"d  c #574231",
"f  c #5C4532",
"g  c #5F4833",
"h  c #63422E",
"j  c #6A432E",
"k  c #7A4A2F",
"l  c #634532",
"z  c #6A4632",
"x  c #634B35",
"c  c #6B4B34",
"v  c #664E38",
"b  c #6A4E39",
"n  c #714731",
"m  c #734D34",
"M  c #7A4D33",
"N  c #724F39",
"B  c #6D5037",
"V  c #675039",
"C  c #6B523B",
"Z  c #735036",
"A  c #7A5136",
"S  c #73553B",
"D  c #7C563A",
"F  c #76593E",
"G  c #7B5A3E",
"H  c #775641",
"J  c #755C43",
"K  c #7D5E41",
"L  c #7F6042",
"P  c #815336",
"I  c #8A5434",
"U  c #845639",
"Y  c #8A5738",
"T  c #835A3B",
"R  c #8B5B3B",
"E  c #905636",
"W  c #945C3B",
"Q  c #8D603E",
"!  c #95623E",
"~  c #9C633E",
"^  c #A2653E",
"/  c #835F43",
"(  c #895F40",
")  c #826244",
"_  c #8B6242",
"`  c #8F6844",
"'  c #8A6648",
"]  c #936542",
"[  c #9B6640",
"{  c #966945",
"}  c #9B6B45",
"|  c #936D4C",
" . c #9A6D4A",
".. c #96704F",
"X. c #9C714D",
"o. c #9D7552",
"O. c #A46740",
"+. c #A46B42",
"@. c #AA6C42",
"#. c #A37047",
"$. c #A47449",
"%. c #A97549",
"&. c #AC7C4E",
"*. c #B17345",
"=. c #B47C4C",
"-. c #A07753",
";. c #A07854",
":. c #AF8351",
">. c #BF8651",
",. c #C08852",
"<. c #C49459",
"1. c #C9985B",
"2. c #CEA060",
/* pixels */
"C C C C C C C V C C C C C C C C C C C C C f 7 6 6 6 6 7 f i 7 6 5 6 y f f v C C x d a 9 = % : 4 4 % s j n n n j 9 4 V C C C C g ",
"x g g g x x x s C V V C C C V V g C v v V r @ @ + @ @ & 6 2 @ @ @ @ & 6 5 & { X.{ { Q ` ` C j I k # I I I I E W j + v C C C C l ",
"f f g g f f s < l f g x C x g g f g v v V 5 @ @ @ @ @ & 6 2 @ @ @ @ & 6 = O ` { ) L G L L S k k j , j j j j n j 2 + g v C C C V ",
"f g g g f f f $ s x V S S S g 7 7 r 6 0 u 6 & + @ @ & - i q @ @ @ & * 6 7 + F C C C C C C x j h e % j j j j j j 1 + g g g x V C ",
"g f f f g f 9 % c [ @.+.} R c , M U D c 5 i 6 w y i w e l l w u w d 7 a a % d x l x x x x f < 8 8 # : : 4 < : : = + f f f g f g ",
"# + + O o o + w T [ R R T D V = U P M z 6 f w a d i 7 w d f d d d d d a d # # # # # # + @ O o O X       . X . . .   7 x a 6 3 % ",
"% # # % + @ h l v z l x b x w , l f w 7 6 d d d d d 6 w d f d d d d a a 6 O % = 3 8 4 # a l x h j h s s e e e 9 3 O + # + O # % ",
"Q Q _ Q s % f f f d u w w l z z z i w 5 1 t u w w f 5 d d d d d d d a % % 9 Q ~ ! ! ! Z Z +.^ ^ ~ R c Z ~ ! W W D 3 s Q Q Q Q Q ",
"{  .X.o.c : g f f g f f a W ^ ^ ! W Y P w 2 7 w w d = d d d w d d = 4 w w 3 ~ ^ Q Q T D c ^ R T D D m A ^ R T Q T 9 c { { { { Q ",
"X.;.;.;.S 9 g g g x V x a U Y A A m m m f 5 d d d d , t d d d 7 # l s a 7 = D Z Z m j h < c m m m m s s m m B B c a v X.X.-.o.J ",
"i f f u 5 w g g g l l s 7 e s f f w 0 w 2 6 f d d 7 , 6 d d d d # a d a 7 3 3 = = a s h l l l i : 3 o 9 x x x x f f = a d f d d ",
"& & & # % q g g g g B a w e 9 9 8 7 6 8 5 1 5 u 7 w , 1 f d u d 3 7 a a 7 7 7 7 a ` } ! [ |  . .s a % G ` Q ` ' S C = # & & & = ",
"f x l h j x g g f f c a l c h 9 9 9 9 9 9 9 4 & & & # = 6 f u d w 7 d w a a 7 a a `  .o.o.;.o.;.x 7 3 ) ` L F C C V g a d d f s ",
"f g x l g f g g f f x 7 w w x z w 9 w 9 9 9 9 8 & - - - - u i w a a d d d d w 7 7 S ) f x l x / f 6 6 Q F C C C C x f f f f f f ",
"g x g g f g g g g g l a 7 7 w h j 9 w 9 w 9 9 9 w e f 6 - 1 u d a a a d d 7 7 7 7 # - * & & & - & 3 d C C C C C C x g g g f g g ",
"g g f f x g g x x x s w a w a z 9 9 9 9 9 w 9 w 9 9 9 s 6 d d d d d a a a a d 7 7 3 e h e l p p s d d d g g g g g a 7 d f g f g ",
"f f g x V s a x v g f 7 d d c h n c j h s e 9 9 8 9 9 w w d d d d d f f f d u 7 * f d d d w 7 7 w d a w 7 w x f g a 7 d f f g g ",
"f f g x B V Z f 7 d d e l l n z s w f l x z c z l p w e e f l T ] [ [ +.{ Q s 7 8 7 7 d d d 7 d a d d d 7 9 g g g f f f f f f g ",
"f f f C x g c l 9 z *.*.*.@.@.^ ^ 8 @.*.*.*.*.*.*.O.m *.=.Y m +.^ ~ W W W I 5 w w d w d w d d d w u 7 6 = x C g g f 7 f f g f g ",
"C C x x V x c x 7 z M M n n n n e 1 O.^ ~ R Y Y Y W n O.Y m i m j z j j j 6 1 f d w w w 7 d w = * 9 s l c c v v x f 7 7 d f g x ",
"C C C C C C C C w w j p j j j j q 1 Y A Z Z A Z m M l Y A z 5 j j j j j j 0 2 w d u w a u 7 & & v C C V C f 5 f g f d d V x g g ",
"C C C C V C B B w 6 p p p e p p 6 ; m m M M M Z M m u z c h * < < < < < , * 1 w d d d d 6 @ + r C C v v C x w v C V g V x x x C ",
"C C C C C C V c w 5 $ # @ @ @ @ @ 1 * $ $ $ # $ $ $ & # @ @ @ @ @ @ @ @ & * 6 d d = + + @ & - 1 f d t 2 1 5 r u f f g V x C C C ",
"C C x V V C V a w 9 w u i w G / _ _ / c = , , = < 5 4 8 q e f 7 l Z A m w 7 d d 5 u f t - - - 1 l z x b b S c x x V C C d 6 V C ",
"w f u m c y l U U Y Y P l 0 %. .{ } { _ 5 u 5 w s f f d d d d 5 %.} ] { / 1 z z C C C C g 2 - c C V g x x C g g v C C V f g C C ",
"f [ U [ R u z ^ W Y P A x u $.{ {  .X.| 1 w 6 w f d w d d d d 7 +.{ } ] D 1 c C J C C C V 1 1 b V x g V C C C V C C C V v V C C ",
"l H D S C y l m m c c c f 7 ` ..o.o.o.' 1 w w d 5 3 5 3 3 7 d 4 } ] ] } D - c H C C C C V 1 - b V x x C C C C C C C C V g V V C ",
"y f x f x i y f f e q f f w 7 a u w w 5 7 d d d 4 = # @ + 7 d 5 l } { { H 1 b V C C C V H v d u C C V C C C V V x C C C g g C C ",
"r l b N D D F Z b C v V V v d d u u w w w w d d a d 6 = 3 d d 6 T ( ( X./ 1 b H C C C H C C C f C C x C V s g g f V C C C g v r ",
"b @.@.O.[ ] W R v l g g c B s a d f d w d d d d w a d d d d d 3 ] c ..;./ 1 c b C C C C C C x C C C V C g s g f t x V V v g g 5 ",
"c R T P D D D A l x C S C V c a u u a a 7 w l Z Z x d d d d d 6 { i / ;./ 1 N H C x C C C C C C S S S B s g g d 7 f g g f v C t ",
"1 6 y i p c c b V V V L G C x l a d a w f Z S C C S l d d d d 5 o.H x o./ 1 b v v l C C C C C 4 < , $ # * * * ; 6 v f g f g g t ",
"V V Z Z S F F K F C S ) F S V v S B C S c x C C C C S l s d d 5 X.l q  ./ 1 c b u f C C C C b * @ @ O + @ @ + - r f f f f f u i ",
"s B G F G L ) K F A L L L S g V C V x V g C C C C C C S C v f 5 u @ + , r - b u 6 V C C C C v & @ @ @ @ @ @ @ - 1 r 7 r 5 u z l ",
"V F L L F G L L F F L ) ) ) v l x V x C C C B B C C C b C C V g & & @ & @ - 1 r c C V V C C b - @ @ @ @ & & * = - - 2 c z i v g ",
"g x S F J Q K F F L ) L F a e w 9 3 g A  .$.$.$.#.+.[ ] U 5 v f i i i i i q 1 l x v v V C C C f f i 6 r 0 i f h 2 u x v C V b C ",
"g g x L K K L ) G G F G C } <.<.<.} 6 ] %.$.#.#.} { ! Q D 1 d d d f d d f b 2 i b C v V b C C C x f g g x l g V 7 V C C C V C V ",
"g g g B F S L ) ) F L L F :.2.1.<.&.1 T Q U U T T T T T D ; u d d d d d i x r u S {  . .| c w C g f f f f f f x d g g g g g g V ",
"g g g g C S F F F S F ) F &.,.,.=.] 2 A U T T T D K b G C 1 u d d d d d d f 6 6 ( | } ] { D 0 C v f f f g g f g g g g f f f g g ",
"g g g x S S S F F K S L H %.=.%.{ } 1 S F S S C C C C C C ; t d d d f d d f u t T | ] | o./ 6 C H g v v V x g f g x f f g f x V ",
"C V V S g 3 w F K F S H x _  .]  .o.1 3 w 6 l C C C C l 3 # 7 d d d d d d f u u 6 z , , c 6 < C C C C C C C l f v C v f f x C V ",
"C S F 9 a C x w K ) F f f _ ) o.;.;.5 5 = * % % * & = % = 7 d d d d d f d d d f s q w w q e l f d d f l x x v x V C C x f g v v ",
"V g d x x x C x f K f f x ` o.| ;.;.2 u w d f d d a d d 7 d d d d d d d f S T ) _ _ R D 5 e d 9 e p j z j < * w g C v f w f f g ",
"C V C V g g g l v l u x f  .o.' | ;.1 d d d d d d a d d , d d d d d d d z &.:.=.&.&.%.{ - i d z Y P P M m j 8 j f 7 < e l g f f ",
"x x g V V x g g s f x f f | ;.;.;...1 d u d d d d d d d = 7 d d d d d d b X.{ { { { } ] 1 q w h n j j j j p p j 3 # z V g g f g ",
"g g x V C V x g g x f w 2 2 u u i < 2 f a d d u d d d d d 3 ; d f d d f m ] ] D  .o.;.;.2 w d 4 j j j j j j j p : + h g g g f x ",
"g V V V C V g g x x f v b q 1 ; ; - z w d d 6 5 7 d d d d d = 5 d d d d l l < | ;.;.o.K * q u * % < , > : $ @ @ % # s f g f g g ",
"g g x C C C x g v v C v V b Z C C b C v a d d w d t 6 6 d d 5 = d d d f f , > > > > = * , l d 6 = * # @ + O O O o # f f f f f g ",
"g f f g x f f v x b C v C C S F F G K F l d u 7 d d 7 a u d w * d d d d d d f f l S S S F C = % 8 8 8 9 q q & + < p C f f g f g ",
"f a F | {  . . . ./ _ $.{ x &.$.#.#.$.$.G a d d d d d d f d w 3 ; w w d d d d d b ] {  . .X.O z { { { { { { i @ e l g g g f g g ",
"f r S {  . . . .{ ( _ X.| l o.;.;.o.;.o.r u d u d d d d f 9 9 w * 7 w w d d d d i ..X.' o.o.@ z } {  . .-.;.c , f g f f g f f g ",
"l x ` X.o.;.;.;.;.| _ o.o.f ;.;.;.;.;.o.u w d d d d d a e 9 9 9 * 7 7 w d d d d 1 1 1 2 2 2 = f o.;.;.;.;.;.b w f f g g f f f g ",
"v d / | | | ......) S ) K 1 l x l l f i 1 7 d d f s s w 9 9 9 9 & d d a a d d d 6 e e f s f s & * = > > ; * * 9 f g f g f f g g ",
"x g 1 = > ; > , 1 > = * * 1 > - * - > 1 , u d d d d l 9 9 9 9 9 & d d 7 a a 7 w w w 9 7 7 7 7 * & * % * = , < s f f g f g f f g ",
"x l i q w q w w 7 u d 1 6 m A F f u w d d d d d d f w 9 9 w 9 9 & a 7 7 a w d d w 7 w d a a a w w 7 w w w e e w 9 a a s f f a s ",
"} +.+.} } +.{ [ Z 6 7 6 u D T U x 6 d d d d d d d x w 9 9 9 9 w = 7 g V c c c c c , l l l c z x l e l x s w D U T T R T z w A } ",
"] R R R R Y T T T l y p r F S S x 1 d a d d f d u f f 9 9 9 w 9 3 3 ! @.@.^ ^ ^ W < @.@.^ ^ @.^ @.M +.*.P j ~ ~ ! W E E q m ] ] ",
"D D F F F F F F Z x 6 z 7 C C b v ; d d d d a w d d f e w w 9 9 3 3 A M m n m m q @ P ~ P E Y Y Y z ^ Y j e n j j j n p 1 c U D ",
"C C C C C C C C C g r c r V C v g 1 d d w a w f w d 9 e w 9 9 9 4 = j j j j p 8 : # D m p n k Z A p M p w , j j j j p p 1 f C C ",
"w w 7 7 w w 7 7 7 5 6 l 6 1 2 1 * 5 d d d f x x v l e w w w w 9 4 * 3 4 < 8 8 : , # 8 8 8 q h j p 2 < < , @ % % : : % $ * 1 w w ",
"7 6 6 4 6 7 w d d d v g g 1 & + # 7 d l V x g V V l v c f e w w 7 = 3 = : , , = = * = # + + + + + X X X o       . o + = w 6 5 5 ",
"C V V x v C C V C V J C C C v o & f v C g g f x x x f f g g x g g f f g B B x x V C C C f 9 5 * + o o O O   % a 7 f f x v f f g ",
"C V x g f V C g x v C C C C C + = x C C V x V C C C x x V V V C V V C C C C V V C C C C C V V C V f f g x 4 # V x g f g V V g g ",
"V C V C v C V V C V C C C C g + g C C C C C C C F C C C C C C C C C C C C C C C C C J C C C V J C C V J C V O V C V C V C C V v "
};
