/* XPM */
static char *_b995b5a67744675c3b52ee532935981[] = {
/* columns rows colors chars-per-pixel */
"64 64 193 2 ",
"   c #13110E",
".  c #19160F",
"X  c #1C1A16",
"o  c #1E1C19",
"O  c #171512",
"+  c #211E1A",
"@  c #281715",
"#  c #341D1A",
"$  c #292417",
"%  c #25221D",
"&  c #2A251A",
"*  c #2D291D",
"=  c #262216",
"-  c #35211D",
";  c #3B231E",
":  c #322C1C",
">  c #3B331F",
",  c #272421",
"<  c #2A2622",
"1  c #2D2924",
"2  c #2C2C2C",
"3  c #3C2622",
"4  c #312C23",
"5  c #332E2A",
"6  c #3A2D29",
"7  c #372724",
"8  c #363125",
"9  c #3A3324",
"0  c #36312C",
"q  c #39342E",
"w  c #3D392D",
"e  c #2B2F30",
"r  c #3C3733",
"t  c #363837",
"y  c #3E3935",
"u  c #353B3E",
"i  c #3A3B3B",
"p  c #333331",
"a  c #432623",
"s  c #442A26",
"d  c #452E29",
"f  c #4B2D2A",
"g  c #482927",
"h  c #443B24",
"j  c #4A3E26",
"k  c #43332C",
"l  c #4D322E",
"z  c #443C2D",
"x  c #413724",
"c  c #50322F",
"v  c #443632",
"b  c #4C3431",
"n  c #423C35",
"m  c #4B3B34",
"M  c #433E3A",
"N  c #493E3A",
"B  c #553634",
"V  c #593733",
"C  c #573836",
"Z  c #5A3936",
"A  c #533D39",
"S  c #5E3C39",
"D  c #623E3A",
"F  c #623C37",
"G  c #3F403F",
"H  c #4C4026",
"J  c #4D432A",
"K  c #52462A",
"L  c #55492D",
"P  c #584B2E",
"I  c #464133",
"U  c #4B4335",
"Y  c #46413B",
"T  c #4B443C",
"R  c #4E493E",
"E  c #504734",
"W  c #544B35",
"Q  c #594E33",
"!  c #51493B",
"~  c #594F3B",
"^  c #5D5135",
"/  c #5D533A",
"(  c #66423D",
")  c #6A433E",
"_  c #635635",
"`  c #625639",
"'  c #665A3A",
"]  c #6A5D3B",
"[  c #725F3B",
"{  c #6E613D",
"}  c #72633E",
"|  c #343F44",
" . c #3C4142",
".. c #3B464B",
"X. c #3A464C",
"o. c #454543",
"O. c #4C4641",
"+. c #4E4944",
"@. c #424648",
"#. c #454949",
"$. c #4C4C4A",
"%. c #474946",
"&. c #524B44",
"*. c #544E4A",
"=. c #584F49",
"-. c #544441",
";. c #4E534F",
":. c #56514D",
">. c #5A534C",
",. c #414D53",
"<. c #4A4F51",
"1. c #4D5152",
"2. c #4A565C",
"3. c #4D595E",
"4. c #465257",
"5. c #5B5651",
"6. c #5E5953",
"7. c #525A5E",
"8. c #50575A",
"9. c #6D4640",
"0. c #6D4841",
"q. c #714741",
"w. c #734A42",
"e. c #7B4C45",
"r. c #655A44",
"t. c #625C55",
"y. c #625E59",
"u. c #6F6242",
"i. c #756641",
"p. c #7B6A42",
"a. c #766844",
"s. c #66615B",
"d. c #69645E",
"f. c #4F5B62",
"g. c #515C63",
"h. c #5C6466",
"j. c #59666E",
"k. c #586469",
"l. c #5D6A72",
"z. c #6B6661",
"x. c #6F6A64",
"c. c #606566",
"v. c #726C66",
"b. c #736E69",
"n. c #76716B",
"m. c #7A746D",
"M. c #616E74",
"N. c #647076",
"B. c #66737A",
"V. c #69767C",
"C. c #6B787F",
"Z. c #7A7671",
"A. c #7D7A75",
"S. c #85534A",
"D. c #91594F",
"F. c #985E52",
"G. c #806F45",
"H. c #837246",
"J. c #887647",
"K. c #8D7A49",
"L. c #887648",
"P. c #927E4B",
"I. c #A06356",
"U. c #827D76",
"Y. c #827E79",
"T. c #97824D",
"R. c #86827D",
"E. c #8A857F",
"W. c #6E7B81",
"Q. c #717E83",
"!. c #748187",
"~. c #79868B",
"^. c #7D8A8E",
"/. c #778489",
"(. c #7F8C90",
"). c #898681",
"_. c #8D8983",
"`. c #908A83",
"'. c #928D89",
"]. c #95918D",
"[. c #818E91",
"{. c #839193",
"}. c #8D9B9C",
"|. c #9B9691",
" X c #9E9995",
".X c #A09B97",
"XX c #A39E99",
"oX c #A7A19C",
"OX c #A9A39E",
"+X c #ACA6A1",
"@X c #AEA8A2",
"#X c #B4ADA7",
"$X c #B7B0AA",
/* pixels */
"M M M M M M Y T M M M M M N M M M M M M M i I T Y Y Y I r r n Y T Y y q q i Y I r 6 7 , % + @ 4 1 + 5.v.U.R.`.Y.t.7 N M M N M y ",
"y y y y n i y &.T M M M M G N i y M M n M r U T T T T r 0 M T R T T y 0 1 X 0.w.q.q.9.9.) V [ K.p.r XX.X.X.X.XXXb.o i M M G M y ",
"r r r r r r r n O.y r M M M r r y n n M M r Y T T T T y r O.T T T T y 0 %   ) 9.D D S F F V [ i.] T )._.).).).).$.o r M M N M M ",
"y y r r y r q y M o.%.$.<.$.M p p q 0 q q r n Y I I G w R &.U Y I I 0 0 4 o B C B C B B B c ` ] ' p ).).).).).Y.:.+ r y y i M M ",
"y r r r p p 1 n $.Q.Q.W.W.N.<.5 ' r.] _ 0 n M n I Y n n O.&.R M n y r q q + f c c c c c B g x J j 1 v.b.v.b.x.x.*.o y q r r r y ",
"X O O     O 5 &.g.B.M.M.l.l.#.7 ] ] ' U 0 q 0 q q q 0 0 q q r q q q q q p + # # # # # # # @   O   O % , , , < < +   5 r 2 , % + ",
"y n I U N T *.n o.$.%.o.o.M p 5 z z 0 5 q q 0 q q q 1 q q q q q q q 0 p < X 4 q n M M 1 r o.$.%.$.$.O.M Y T R M p o 1 0 0 q r w ",
"' ' ' ' U ! Y y r q q p q U W ~ W U z q 5 q 0 0 0 q 1 p q q q q q q 7 < 5 r u.a.a.i.r.~ <.W.Q.Q.C.B.1.~ i.i.u.] ~ 1 Q ' ' ' ' ' ",
"^ ^ L K n O.M r r r r r q p.G.G.} } } { z 8 0 0 q 5 1 q q q 5 q 0 1 M y 0 1 p.p.] [ ] ] <.W.N.M.l.l.7.` p.} ] ] ] 0 / ] ] ] ] ` ",
"K H H H k &.y r r n n v q r.[ ] ' { ' ' I 0 q q q q < q q q 0 5 % R r 6 5 + Q _ ^ W J z 2 <.4.3.7.g.@.k Q Q W Y U q U L K J H J ",
"9 : : : 4 &.y r M M M r 5 z z v w w w 0 0 0 q p 5 0 1 r r q q q + y q 0 5 1 * 1 < 7 d d s d k 3 < 1   %.s.x.b.b.z.Y z : : : w U ",
"I I I U T >.y y r M *.r q Y q y r q q w p q 1 0 5 0 1 5 Y q 0 q 1 0 q 0 5 5 5 0 q D 9.9.) ) ) ( g q o _. X X X|._.=.Y I Y I I T ",
"O.+.+.+.&.o.v r r y O.q T &.&.r t w w t w t q , + + o 4 r n 0 q 0 q q 0 0 q 5 0 5 V S S C C C C f r < _. X]._.).).5.i M G M Y Y ",
"r r y y r r y y r y N q 0 0 Y *.y w t w r w r 0 1 5 5 5 5 M r 0 q 0 r q q q 8 0 5 l b l l l l l g y 8 _._.).).).).>.r r w r r y ",
"y i y r y r r y r r n q 5 5 0 &.R p q q w t r r y T *.N 5 5 q q q q 5 0 q 5 5 5 0 k s s k d d k z y r z.A.).).).).+.r r r r r y ",
"y y M y y r y n M i n 0 q 5 w &.w q w w r w w r r r r T M q q q q q q q q 0 q 5 q &.&.&.&.&.R O.-.n 0 r y y M M M y y y i r r y ",
"r r r N O.i p v y r r 0 q q >.&.*.>.:.&.T n y r w w r y G 0 q q q q q q q q q 5 I M q q q q 5 5 0 q 0 0 5 6 y y r r y r r y r y ",
"r r r i N N *.M 0 0 Y :.s.x.m.b.6.q Y O.$.$.*.*.;.%.y I J I z ( 0.0.0.w.w.) k 5 Y 5 5 q q p 5 6 0 r q q 5 p y y r y r r r r r y ",
"y y r M n r M R 0 >.@X+XOXoX+X+XOX*.[.{.{.(.(.(.(.~.;.T.T.{ m ) ( ( ( ) ) F ; 5 0 q 0 0 5 q q q 0 0 1 1 , O.M r y r r r r r r i ",
"M M n n M M M O.5 5._.)._._._.).v.n !.!.W.B.B.V.V.V.;.p.{ / v C C B B C B g - w q 0 q 6 5 q 6 % 1 M O.O.-.M M M i y y r r i r v ",
"N G M M N M M O.5 *.E.).R.).).).z.G l.l.l.l.l.l.l.l.#.{ ] / k C B C B B B g # 0 q q 0 0 p 5 + < T M M M M N M y y y r y M i r v ",
"M M Y M M M M &.q Y U.Y.Y.Y.U.A.d.G g.k.j.j.j.j.j.j.G Q ^ J 6 g g g g g s ; # 0 q q q 0 1 X + r Y M M M M M M M M y r M r M M M ",
"Y M M M M M M o.0 w t.t.y.y.t.y.6.T  .X... .X.X.....i 1 * 4 z v k k k q k s 7 q r + o + % < 5 5 y r p 5 p p p p r r v n N G G N ",
"M M M M M M M v q q q y q 0 ` ' ' { { W w G y R ! ! W W E U I y c.V.V.V.3.i n q 5 M n r 5 5 5 r *.&.O.O.O.-.-.O.o.o.o.G M M M M ",
"y U m / W r O.U.R.).).Y.:.q p.] { { ] _ 5 0 y I q w w q q q q t [.!.!.!.l.e &.&.&.o.M M M p 5 *.O.M y y n M y y M N M M M M M N ",
"n i.' } ] n y. X].'._._.t.q } ' / Q K J 0 q U 0 q q 0 q q q q t ^.!.!.!.j.2 *.Y M M M M M 6 5 *.M y y M N G M M M N M M i M M G ",
"n ` / T N p y.Z.Z.b.z.y.M 5 H J j H H > 2 q m q 1 * 1 0 n w q t !.!.!.!.j.2 &.Y N Y Y N M r 5 *.M r M M G N N M M G N M y M M M ",
"r y y y M p M N N M n M n w 4 4 : : 8 * 8 z q q 4 * : 0 T y q t ,.!.!.!.k.2 &.M M G M M M M y M M M i M M M M M y M M M v i N M ",
"r n N A A C A N T Y M M M M q q q 0 0 0 0 w q q q q w n n q q t l.W.C.B.3.2 $.Y M M M N Y M M r M M M M M r r r r G M N M y n p ",
"b ) ) D S S S Z n y y y n o.M 0 q q 0 0 0 0 q q q q q q q q r t Q.f.l.l.2.2 &.Y M N M G M Y i Y G N M M r v r r r r M G i y n q ",
"v C C B B B B B y n N O.U n T y q 0 q 0 8 0 Y *.=.Y q q q q q t W.,.k.j.3.e *.Y M R M M M Y M O.-.&.&.&.o.M v r q r r r r M N p ",
"p n M O.O.-.O.M M i M -.T M M N y y y y R *.-.T Y *.Y q q q q t l.2.f.l.2.2 *.M i O.o.Y M M O.O.+.O.5 M R O.o.5 p n r r r r y q ",
"N R &.&.&.&.&.&.&.N &.! U Y M n O.O.O.O.M M Y M M M &.R r q r t j.,.4.j.f.e &.M r O.M G M M O.n T T w I T T T 5 q y y y r r n M ",
"y R &.! U ! ! T R =.=.! ! U r M M M y M n M M M M M M O.R Y n t X.|  .X...2 O.r v O.M M Y M M r T T Y Y T R T 5 5 0 p p p N &.n ",
"y R T U U ! ! ! U U ! ! R ! n y y i M M M M I U R Y Y U M Y M n u | i u | p p y O.M M i M M M q I Y I y v p r 5 5 5 n -.O.N M r ",
"y y U m ! ! U ! T ! R ! U l c c l g v ` J.K.K.K.K.J.G.p.' q M q M &.&.O.-.-.5 y y n n M M o.M M y y y M o.O.-.*.p M N M M N o.M ",
"r r n R ! U ! ! ! ! U T m e.F.F.F.w.; p.K.J.H.H.G.p.} } ' 5 r q q q q q r &.r r M M y M M M M Y M i y M y y y o.n G o.M M M M M ",
"y r r M Y U T ! ! U ! ! U S.I.F.D.e.; ] [ ] ] ] ' ' ' ] ] 5 q q q q q r q Y p w ~ u.u.} r.E Y M y y y y r y r M v r v y y y r M ",
"r y r r I U U E U U m ! ! e.S.S.e.) ; ` ] ] ] _ _ K h K K 5 q q q q q q q n r v ' ] ] ] ' Q T M M r r y y r r r r r y r r r r r ",
"y v r M U m T T U U N ! m e.e.q.) ) ; Q _ P L K H H j j j 5 0 q q q q q q r r w ^ _ L K J h T Y Y n i n M n r y y M r r r r i M ",
"M M n U 0 1 8 U E T U T v ) 9.) D V # : : $ H L K K L h * & 0 q q q q r w w q r 9 : @ $ > $ T Y M M M M M M y r i M i y r y M M ",
"N G m 4 w M n 0 T ! U 0 n ( V V C B ; 5 1 % $ & * & & $ * 8 q q q q q q 0 w q r &.R &.! &.=.&.0 q q r r M y M y M M N y y y n y ",
"M r r n y y M n y U q q v C B B B C - 5 0 q q q q 0 q 0 2 q q q q q q q I v.R.E.`.`.`.m.T y q k V Z F D Z f a b v N G N O.M r y ",
"M M M M y y y y y y k n w B V B B B - q q q q q q 0 q q 1 0 q q q q q q t.#X$X$X$X#XOXXXT O.q S ) ) ) D D V f B b G &.t.o.r r y ",
"y y y n M i y y y y M r w B C C C B - q 0 q r q q r q q , 0 p q q q q q d.oXXX.X.X.X X|.O.+.0 b F V C B B B B B 3 r =.o.n r r y ",
"r y M M M M y y y y r n 4 ; a 3 ; ; 4 r 0 q q 0 q q q q r 1 1 q q q q q x. X'.v._.E._.E.O.R w s V B B C V V B B 3 r O.r r r r M ",
"y M M M M M y y y y y M O.n 1 & & $ &.q q q 0 q q q 0 q q q < 8 q q q v t.+.9 m.R.E.R.m.:.&.q 3 g g g a ; ; ; ; < 6 O.r y y r r ",
"r y i M M N y y M M M n M N O.O.T T O.O.q q q q q q 0 0 q q 1 1 q p q r *.Y *.t.t.t.t.t.=.T q 1 & + + + o @ + o + M +.y r r r r ",
"r r y M n v y n n M G y Y Y 5.z.x.n.m.b.:.r 0 0 0 q q q w 0 0 < q q q q q w r n n W Q E E I % w U W W W W ~ I T &.&.M y y r y y ",
"r p ` u.} } i.} } ` 0.e.) -.#X+XOXoXoX+XY.y q q q q q q 0 9 I 9 1 0 q q q q q q z ' _ ^ L J % Q ] ' ] ' ] ' I R T r i r y r r y ",
"y p ! ' _ _ Q _ ^ Q ( ) Z A ).R.).)._.).+.q q q q q r q 0 G I I % 5 0 5 q q q q 0 j H 9 H h 1 / ' ' _ L H H z &.M r r r y r r y ",
"n v P K H H j j H j S C B b ).).).R.).).*.r q q y q w q w I J I % 5 5 5 q q q q y n y n I I I I H J H j j j x O.r r r y r y r r ",
"n r h h h h h h h h f c f d b.n.b.b.b.b.*.r q q w n I I H I J w % q q 5 0 q q q T n n n y r w y 4 : 1 : 1 : 8 O.r y r y r r r y ",
"y M * % $ $ & & $ & 7 ; s v >.5.>.&.&.+.T r q q q 0 I I I I I I % q 0 0 q 0 0 0 n 0 8 5 0 0 5 m T T R R &.&.=.>.r r r v r y r y ",
"h.c.g.h.7.7.8.$.q / >.9 y.'.|.|.Y.n 0 q q q q q w m I I I I I J , 0 0 0 q 0 0 q 0 0 0 0 0 0 0 q 0 q q q q w y q 5 0 q p v &.y 1.",
"}.}.}.}.}.}.}.}.h.r I q z..X X X).T q q q q q q q n I I I J I I 4 0 R >.y.d.d.z.t.1 %.%.$.$.$.%.%.y I W z Y n.Y._._.'._.d.3./.}.",
"(.^.^./.^././.!.!.k.w / 6.].'.).R.R 0 0 q q q q q q I I I I z z 9 5 '.oXXXXXoX+X|.M ^.^.(.^.~.(.~.3.J.T.' d. X|.|.|. X|.t.M.[.[.",
"W.B.W.W.C.C.B.B.M.f.p ' :.E.).E.R.&.q q q q 0 q q q q m I m J I 8 5 Y._._._._._.y.< k.Q.B.B.B.B.V.4.p.} ^ y.E.E.).).R.A.T M.Q.W.",
"l.j.l.l.l.l.l.l.l.3.p ` R R.R.Y.A.&.q 0 0 q q y r 0 8 q z z z z 9 1 Z.)._.A.x.y.M 2 N.l.l.l.l.l.l.X.{ ' ^ :.R.R.R.R.).A.O.g.l.l.",
"f.2.2.2.2.4.2.2.2.X.p W Y d.d.s.6.n q r r Y T M Y Y I 0 0 9 0 q 4 , d.n.n.n.n.n.y.2 2.g.g.g.f.g.f.X.w h 9 T x.x.x.z.z.z.&.,.2.3.",
"| i G i i o.i o.Y i M M G y 5 y Y w q N &.M r M M i Y R M M y p 6 , o.*.:.5.:.:.=.p | | t u ..@.#.#.n w n &.>.>.>.:.&.O.M | i M ",
"M M M M i M M M M M Y M I Y G % Y r T M y r r i y y r y y y v y i r y y M M M i M M N M r 5 5 1 1 1 1 5 5 r T Y N n r M M y r y ",
"M M v y y M M y i M Y Y i Y I % o.M M M M M M M M M M n i M M M M M M M M M M M M G M M M i M M M y y i M 5 N M M y r r M N r y ",
"*.=.=.1.$.:.*.*.:.=.:.:.:.:.%.R :.:.:.:.:.:.:.:.:.:.:.=.:.:.:.:.:.=.:.:.:.:.:.=.:.:.5.:.:.:.:.:.:.:.:.>.=.*.%.=.1.*.:.*.1.:.$.*."
};
